<?xml version="1.0" ?><svg height="512" id="svg2" version="1.1" width="512" xmlns="http://www.w3.org/2000/svg" xmlns:cc="http://creativecommons.org/ns#" xmlns:dc="http://purl.org/dc/elements/1.1/" xmlns:inkscape="http://www.inkscape.org/namespaces/inkscape" xmlns:rdf="http://www.w3.org/1999/02/22-rdf-syntax-ns#" xmlns:sodipodi="http://sodipodi.sourceforge.net/DTD/sodipodi-0.dtd" xmlns:svg="http://www.w3.org/2000/svg"><defs id="defs4"/><g id="layer1" transform="translate(0,-540.3622)"><g id="g3781" transform="translate(6.0001863,9.1093704)"><g id="g4328"><path d="m 220.28125,6.78125 c -46.68727,0 -92.27268,32.10842 -129.53125,61.875 -36.360899,29.04942 -63.515419,57.80898 -64.8125,59.1875 -0.03202,0.034 -0.25,0.25 -0.25,0.25 a 20.002,20.002 0 0 0 -5.40625,17.21875 l 0,8.59375 a 20.001996,20.001996 0 0 0 0,5.1875 l 0,209.625 a 20.002,20.002 0 0 0 22.59375,23.0625 l 177.125,0 0,-40 -121.90625,0 89.09375,-70 66.1875,0 1.90625,1.5 64.75,0 -15.1875,-11.9375 29.46875,-27 c 2.58223,-6.7971 7.83099,-12.18667 15.15625,-15.21875 0.78692,-0.32572 1.58403,-0.58956 2.375,-0.84375 l 28.4375,-26.0625 0,13.125 0,20.59375 40,40 0,-116.5 a 20.002004,20.002004 0 0 0 0,-5.65625 l 0,-8.4375 a 20.002,20.002 0 0 0 -4.71875,-16.4375 20.002,20.002 0 0 0 -0.6875,-0.8125 c 0,0 -0.43847,-0.42638 -0.65625,-0.65625 C 410.99307,124.03266 384.7147,96.54028 349.8125,68.65625 312.55393,38.88967 266.96852,6.78125 220.28125,6.78125 z m 0,40 c 25.42376,0 69.84882,25.39158 104.5625,53.125 24.62596,19.67414 44.71519,39.20805 54.4375,49 L 273.09375,246.25 a 20.002,20.002 0 0 0 -5.625,-3.21875 20.002004,20.002004 0 0 0 -7.8125,-1.4375 20.002004,20.002004 0 0 0 -2.1875,0.1875 l -74.53125,0 a 20.002,20.002 0 0 0 -2.625,-0.1875 20.002,20.002 0 0 0 -5.90625,0.96875 20.002,20.002 0 0 0 -0.0625,0.0312 20.002,20.002 0 0 0 -0.5,0.1875 20.002,20.002 0 0 0 -6.375,3.4375 L 61.28125,148.9062 c 9.722318,-9.79195 29.811551,-29.32586 54.4375,-49 34.71368,-27.73342 79.13874,-53.125 104.5625,-53.125 z m -160,155.4375 75.4375,69.125 -75.4375,59.28125 0,-115.28125 0,-13.125 z" id="rect3001" style="font-size:medium;font-style:normal;font-variant:normal;font-weight:normal;font-stretch:normal;text-indent:0;text-align:start;text-decoration:none;line-height:normal;letter-spacing:normal;word-spacing:normal;text-transform:none;direction:ltr;block-progression:tb;writing-mode:lr-tb;text-anchor:start;baseline-shift:baseline;color:#000000;fill:#222222;fill-opacity:1;stroke:none;stroke-width:40;marker:none;visibility:visible;display:inline;overflow:visible;enable-background:accumulate;font-family:Sans;-inkscape-font-specification:Sans" transform="translate(0,540.3622)"/><path d="m 240,963.65431 c 1.9e-4,1.96344 0.80855,3.91472 2.19692,5.30308 1.38836,1.38837 3.33964,2.19673 5.30308,2.19692 l 105,0 0,48.74999 c 0.006,2.9413 1.91439,5.791 4.63206,6.9158 2.71767,1.125 6.08199,0.4578 8.1648,-1.6189 l 112.5,-112.50001 c 1.38441,-1.38804 2.18997,-3.33646 2.18997,-5.29688 0,-1.96041 -0.80556,-3.90883 -2.18997,-5.29687 l -112.5,-112.5 c -2.08281,-2.07679 -5.44713,-2.7439 -8.1648,-1.619 -2.71767,1.1249 -4.62633,3.97459 -4.63206,6.91587 l 0,48.75 -105,0 c -1.96344,2e-4 -3.91472,0.80856 -5.30308,2.19693 -1.38837,1.38836 -2.19673,3.33963 -2.19692,5.30307 z" id="path2991" style="font-size:medium;font-style:normal;font-variant:normal;font-weight:normal;font-stretch:normal;text-indent:0;text-align:start;text-decoration:none;line-height:normal;letter-spacing:normal;word-spacing:normal;text-transform:none;direction:ltr;block-progression:tb;writing-mode:lr-tb;text-anchor:start;baseline-shift:baseline;color:#000000;fill:#2980b9;fill-opacity:1;fill-rule:nonzero;stroke:none;stroke-width:20;marker:none;visibility:visible;display:inline;overflow:visible;enable-background:accumulate;font-family:Sans;-inkscape-font-specification:Sans"/></g></g></g></svg>